# xmcd
#
# Track frame offsets:
# 150
# 16231
# 40393
# 50998
# 67474
# 88078
# 118794
# 137627
# 155312
# 173156
# 194090
# 213482
# 234519
#
# Disc length: 3355 seconds
#
# Revision: 1
# Processed by: cddbd v1.5.1PL2 Copyright (c) Steve Scherf et al.
# Submitted via: freedbtool 1.11
#
DISCID=c60d190d
DTITLE=Stevie Ray Vaughan - Greatest Hits (Benja)
DYEAR=1900
DGENRE=
TTITLE0=Taxman
TTITLE1=Texas Flood
TTITLE2=The House is Rockin'
TTITLE3=Pride and Joy
TTITLE4=Tight Rope
TTITLE5=Little Wing
TTITLE6=Crossfire
TTITLE7=Change It
TTITLE8=Cold Shot
TTITLE9=Couldn't Stand the Wheather
TTITLE10=Life Without you
TTITLE11=The Sky is Crying
TTITLE12=Pride and Joy (unplugged)
EXTD=
EXTT0=
EXTT1=
EXTT2=
EXTT3=
EXTT4=
EXTT5=
EXTT6=
EXTT7=
EXTT8=
EXTT9=
EXTT10=
EXTT11=
EXTT12=
PLAYORDER=
